<?xml version="1.0" standalone="no"?>
<!DOCTYPE svg PUBLIC "-//W3C//DTD SVG 20010904//EN"
 "http://www.w3.org/TR/2001/REC-SVG-20010904/DTD/svg10.dtd">
<svg version="1.0" xmlns="http://www.w3.org/2000/svg"
 width="1728.000000pt" height="1728.000000pt" viewBox="0 0 1728.000000 1728.000000"
 preserveAspectRatio="xMidYMid meet">
<metadata>
Created by potrace 1.14, written by Peter Selinger 2001-2017
</metadata>
<g transform="translate(0.000000,1728.000000) scale(0.100000,-0.100000)"
fill="#000000" stroke="none">
<path d="M0 8640 l0 -4320 8208 0 c7260 0 8210 2 8236 15 15 8 34 15 40 15 7
0 40 20 73 45 63 45 106 98 139 171 15 32 24 40 40 38 26 -4 54 23 36 35 -7 4
-9 21 -5 44 6 39 23 51 23 17 0 -26 15 -26 37 0 10 11 27 20 38 20 11 0 46 25
77 56 32 31 58 52 59 48 0 -5 4 0 8 10 9 23 44 30 72 16 19 -11 18 -13 -13
-58 -18 -26 -36 -48 -41 -50 -4 -2 -7 -8 -7 -13 0 -5 -59 -97 -130 -204 -71
-107 -130 -197 -130 -200 0 -3 18 -5 39 -5 38 0 42 3 88 71 26 39 53 76 58 83
6 6 24 31 40 56 38 56 138 200 180 256 11 16 15 16 57 -4 24 -12 47 -22 51
-22 4 0 7 1845 7 4100 l0 4100 -8640 0 -8640 0 0 -4320z m17257 2774 c-3 -3
-12 -4 -19 -1 -8 3 -5 6 6 6 11 1 17 -2 13 -5z m-12654 -242 c31 -11 68 -27
83 -37 26 -17 27 -19 21 -90 -7 -99 -15 -111 -69 -110 -42 0 -43 1 -56 45 -25
83 -28 87 -79 99 -26 6 -71 13 -100 14 -45 2 -56 -2 -82 -27 -51 -49 -76 -134
-76 -261 0 -103 2 -113 30 -165 20 -37 45 -65 79 -87 44 -30 55 -33 126 -33
72 0 78 2 84 23 8 31 7 120 -2 133 -4 6 -29 21 -55 32 -36 16 -48 26 -45 39 3
16 20 18 169 21 l167 2 4 -25 c5 -23 1 -26 -38 -36 l-43 -11 -3 -96 -3 -95
-115 -49 c-111 -48 -117 -49 -192 -45 -198 13 -326 145 -336 348 -8 164 49
284 174 365 97 63 247 82 357 46z m5204 4 c99 -26 183 -100 230 -201 26 -55
28 -70 28 -180 0 -110 -2 -125 -28 -180 -67 -144 -195 -216 -358 -202 -130 11
-236 86 -293 207 -29 61 -31 72 -31 180 0 105 2 120 28 176 45 96 145 182 240
204 52 13 128 11 184 -4z m-651 -25 c104 -40 154 -112 154 -220 0 -72 -15
-107 -68 -156 -55 -51 -126 -75 -225 -75 -51 0 -88 -5 -95 -12 -12 -12 -16
-125 -6 -164 5 -18 17 -23 67 -30 57 -8 62 -11 62 -34 l0 -25 -192 -3 c-188
-2 -193 -2 -193 18 0 14 12 25 40 36 29 12 40 22 40 38 1 11 1 144 0 295 0
291 0 291 -47 291 -27 0 -36 14 -28 40 6 18 18 20 138 23 193 6 301 -1 353
-22z m-3702 -61 c0 -41 -3 -87 -7 -102 -7 -25 -12 -28 -51 -28 l-43 0 -12 54
-12 53 -67 7 c-37 3 -82 6 -100 6 l-33 0 3 -117 3 -118 118 4 117 3 0 -51 0
-51 -120 0 -121 0 3 -112 3 -113 84 4 c112 4 124 9 138 62 19 66 24 71 72 63
l43 -7 -7 -101 c-4 -56 -9 -104 -12 -108 -2 -5 -134 -8 -294 -8 -285 0 -289 0
-289 21 0 14 13 26 45 40 l45 20 0 293 c0 319 2 306 -56 306 -20 0 -24 5 -24
30 l0 30 288 -2 287 -3 -1 -75z m1524 58 c2 -12 -10 -24 -42 -40 l-46 -22 0
-288 c0 -274 1 -288 19 -298 11 -5 33 -10 50 -10 28 0 31 -3 31 -30 l0 -30
-177 2 c-157 3 -178 5 -181 20 -2 11 11 23 42 37 l46 20 0 294 c0 321 2 307
-56 307 -20 0 -24 5 -24 30 l0 30 167 -2 c150 -3 168 -5 171 -20z m351 0 c11
-13 77 -113 146 -222 70 -109 131 -204 136 -210 5 -6 18 -22 30 -36 l20 -25
-5 64 c-3 35 -6 135 -6 222 l0 157 -50 7 c-47 6 -50 9 -50 36 l0 30 153 -3
c138 -3 152 -5 152 -21 0 -10 -17 -27 -40 -40 l-40 -23 -5 -324 -5 -325 -45
-7 c-109 -16 -99 -22 -195 125 -48 72 -124 187 -169 253 l-81 122 -3 -206 c-1
-123 1 -209 7 -215 6 -6 27 -13 48 -16 32 -5 38 -10 38 -31 l0 -25 -150 0
c-127 0 -150 2 -153 15 -2 10 14 24 43 38 l45 22 0 294 c0 315 2 306 -50 306
-21 0 -29 16 -22 43 4 15 18 17 118 17 106 0 116 -2 133 -22z m949 0 c2 -11
-12 -23 -42 -39 l-46 -23 0 -292 0 -293 38 -6 c58 -10 62 -13 62 -40 l0 -25
-174 0 c-96 0 -177 4 -180 9 -12 18 6 40 45 55 l39 16 0 294 c0 320 2 306 -56
306 -20 0 -24 5 -24 30 l0 30 167 -2 c147 -3 168 -5 171 -20z m2146 16 c28
-11 17 -30 -29 -53 -34 -17 -44 -27 -40 -40 6 -19 51 -192 83 -316 11 -44 24
-107 28 -140 l6 -60 20 65 c10 36 26 88 34 115 67 218 71 241 50 301 -28 83
-25 88 52 104 37 8 71 15 76 15 5 0 26 -65 47 -145 22 -80 50 -188 64 -240 14
-52 25 -113 25 -137 0 -59 16 -54 34 10 8 28 27 93 41 142 52 178 83 305 76
310 -5 2 -27 7 -50 11 -47 8 -55 15 -46 45 6 19 13 20 148 17 124 -3 142 -5
145 -20 2 -11 -10 -24 -37 -37 -34 -18 -42 -28 -55 -73 -8 -29 -50 -176 -93
-327 -87 -307 -77 -291 -181 -291 l-57 0 -48 153 c-26 83 -54 166 -61 182
l-13 30 -12 -53 c-6 -29 -29 -108 -51 -176 -45 -138 -43 -136 -149 -136 l-47
0 -68 218 c-37 119 -84 272 -104 340 l-36 122 -38 6 c-34 6 -38 10 -38 35 l0
29 154 0 c85 0 161 -3 170 -6z m1397 -11 c2 -33 -1 -98 -7 -145 l-6 -48 -48 0
-48 0 -7 50 c-4 27 -10 52 -13 54 -4 2 -51 7 -105 11 l-98 7 3 -118 3 -119 35
1 c19 0 71 2 115 5 l80 4 3 -52 3 -53 -120 0 -121 0 0 -110 0 -110 91 0 c50 0
98 4 108 10 10 5 24 30 31 54 16 58 29 69 74 60 l36 -6 0 -72 c0 -39 -3 -88
-6 -109 l-7 -37 -291 2 c-252 3 -291 5 -294 18 -2 10 14 24 43 38 l45 22 -2
297 -3 298 -33 3 c-34 3 -48 21 -38 47 5 13 46 15 291 15 264 0 285 -1 286
-17z m444 -6 c0 -10 -17 -27 -40 -40 l-40 -23 -3 -268 c-1 -161 2 -273 7 -280
7 -8 33 -9 88 -5 43 4 90 8 105 8 25 1 29 7 49 76 l22 76 46 -3 46 -3 -1 -111
c0 -61 -4 -118 -7 -128 -6 -15 -34 -16 -309 -14 -270 3 -303 5 -306 19 -2 11
12 23 43 38 l45 21 0 295 0 295 -27 6 c-49 10 -53 13 -53 39 l0 25 168 -2
c153 -3 167 -5 167 -21z m673 1 c2 -12 -6 -22 -25 -30 -66 -28 -63 -14 -63
-315 l0 -273 63 0 c34 0 85 3 114 6 l52 7 22 74 22 74 46 -3 46 -3 -1 -101
c-1 -56 -4 -113 -8 -128 l-6 -26 -300 0 c-169 0 -301 4 -304 9 -11 17 5 36 44
53 l40 17 3 188 c5 404 4 412 -51 413 -24 0 -38 21 -29 44 5 12 35 14 169 13
146 -2 163 -4 166 -19z m-7006 -153 c32 -88 70 -194 85 -235 45 -128 54 -146
63 -130 4 8 31 78 60 155 28 77 72 193 97 258 l45 118 126 -3 c105 -3 127 -6
130 -18 2 -10 -14 -24 -43 -38 l-45 -22 6 -277 c3 -153 7 -283 9 -289 2 -7 26
-17 53 -24 38 -9 49 -16 47 -28 -2 -9 -4 -20 -4 -24 -1 -5 -80 -8 -176 -8
-170 0 -175 1 -175 21 0 14 13 26 45 40 l45 20 -1 227 -1 227 -22 -55 c-12
-30 -56 -144 -96 -253 -41 -110 -82 -203 -91 -207 -8 -5 -38 -12 -65 -15 l-49
-7 -94 252 c-52 138 -97 253 -100 255 -3 2 -5 -88 -4 -198 2 -111 3 -210 3
-219 0 -11 10 -20 28 -24 59 -13 63 -15 60 -37 -3 -21 -7 -22 -153 -22 -132 0
-150 2 -153 17 -2 11 11 23 43 37 25 11 47 26 49 33 3 7 7 137 11 289 l6 276
-46 12 c-38 10 -45 15 -45 36 l0 26 147 -3 146 -3 59 -160z m11279 -48 c-10
-9 -11 -8 -5 6 3 10 9 15 12 12 3 -3 0 -11 -7 -18z m-46 -37 c-3 -5 -12 -10
-18 -10 -7 0 -6 4 3 10 19 12 23 12 15 0z m-7956 -1159 c14 -12 20 -25 15 -32
-4 -7 -3 -9 3 -6 12 7 23 -14 23 -41 0 -31 -93 -261 -103 -255 -6 3 -7 1 -3
-6 8 -12 -8 -56 -141 -396 -42 -104 -95 -242 -119 -305 -79 -209 -204 -535
-214 -555 -5 -11 -25 -60 -44 -110 -204 -535 -240 -623 -260 -643 -13 -14 -40
-26 -64 -29 -38 -5 -45 -2 -78 31 -32 32 -36 41 -31 74 7 56 139 392 150 385
6 -3 7 -1 3 5 -4 7 32 112 79 235 48 122 149 384 225 582 210 544 235 606 245
598 4 -5 5 -2 1 5 -9 15 53 184 65 176 5 -3 6 1 3 9 -2 7 10 52 29 98 19 46
39 101 46 121 7 21 24 47 38 58 34 27 102 27 132 1z m-991 -416 c17 -14 33
-39 37 -55 7 -34 -2 -73 -16 -65 -5 3 -6 0 -3 -8 4 -10 -43 -53 -146 -133 -83
-66 -158 -123 -167 -129 -9 -5 -30 -23 -47 -38 -17 -16 -56 -47 -86 -70 -139
-106 -330 -259 -330 -265 1 -4 22 -23 48 -44 26 -20 119 -93 207 -162 88 -70
175 -138 193 -152 18 -14 30 -29 27 -34 -3 -6 0 -7 8 -4 9 3 21 -4 29 -15 8
-12 17 -19 19 -17 9 8 245 -191 258 -218 26 -54 -14 -125 -80 -141 -29 -7 -95
25 -91 44 1 7 -2 10 -8 6 -11 -7 -115 67 -129 92 -4 8 -11 14 -15 13 -4 -1
-77 54 -163 122 -86 68 -219 172 -297 233 -78 60 -152 120 -166 133 -14 12
-40 32 -58 43 -37 24 -62 66 -62 104 0 34 18 67 32 59 6 -4 8 -3 4 4 -3 6 58
60 145 129 83 65 177 138 208 163 235 184 309 242 371 293 177 145 218 162
278 112z m1187 -27 c37 -29 94 -73 125 -98 32 -25 105 -82 164 -128 58 -46
111 -88 118 -95 7 -7 42 -34 78 -62 96 -74 110 -87 103 -98 -3 -6 -1 -7 5 -3
14 8 124 -73 116 -85 -3 -5 -1 -8 4 -7 18 6 134 -87 147 -118 16 -38 9 -81
-19 -110 -39 -41 -414 -332 -420 -326 -3 3 -6 1 -6 -5 0 -13 -120 -106 -137
-106 -7 0 -10 -3 -8 -7 2 -4 -33 -36 -78 -71 -132 -105 -153 -119 -161 -111
-4 4 -6 2 -4 -4 2 -7 -19 -29 -47 -50 -64 -49 -110 -52 -155 -9 -24 23 -30 37
-30 73 0 57 4 61 273 268 67 51 142 111 167 132 25 21 63 51 85 67 22 16 55
42 73 57 18 16 38 25 44 22 6 -4 8 -3 5 3 -3 5 28 35 69 67 40 31 74 61 74 66
0 4 -15 21 -32 36 -18 15 -33 31 -33 37 0 6 -7 11 -17 13 -9 1 -58 35 -110 76
-51 41 -155 123 -231 182 -80 62 -134 112 -131 118 4 7 2 8 -5 4 -14 -9 -43
12 -35 25 3 5 -1 7 -8 4 -7 -3 -32 12 -55 34 -24 21 -43 36 -43 33 0 -3 -11 5
-25 18 -13 12 -22 27 -18 33 4 6 1 7 -6 3 -19 -12 -40 25 -41 71 0 33 6 48 31
72 48 49 90 44 174 -21z m-2520 -2308 c8 -13 -13 -40 -31 -40 -17 0 -18 37 -1
43 19 8 25 8 32 -3z m719 1 c9 -14 -4 -41 -19 -41 -21 0 -28 19 -15 35 14 17
26 19 34 6z m971 -1 c8 -13 -13 -40 -31 -40 -14 0 -19 31 -7 43 10 10 31 8 38
-3z m225 -5 c0 -8 -8 -15 -18 -15 -26 0 -42 -20 -42 -50 0 -21 5 -26 21 -26
12 1 24 -5 26 -11 3 -9 -6 -13 -26 -13 -33 0 -37 -5 -45 -59 -18 -128 -30
-171 -46 -171 -19 0 -19 2 6 129 18 92 18 101 -1 101 -8 0 -15 7 -15 15 0 8 8
15 18 15 12 0 21 12 28 33 5 18 15 31 22 29 8 -1 11 2 8 7 -7 11 21 30 47 31
9 0 17 -7 17 -15z m210 0 c0 -8 -8 -15 -19 -15 -21 0 -36 -16 -44 -47 -4 -19
-1 -23 19 -23 15 0 24 -6 24 -15 0 -9 -9 -15 -25 -15 -30 0 -29 3 -50 -123
-11 -64 -22 -100 -31 -104 -8 -3 -16 -4 -18 -2 -2 2 4 47 14 99 23 118 24 130
5 130 -22 0 -18 21 4 27 12 3 23 17 26 34 11 48 95 96 95 54z m-1770 -17 c0
-13 -5 -40 -11 -61 -10 -38 -5 -62 9 -41 23 36 103 44 141 15 21 -16 24 -26
23 -72 -3 -79 -25 -163 -43 -167 -14 -2 -14 7 0 92 14 90 14 96 -4 116 -26 29
-83 27 -116 -4 -20 -19 -29 -41 -38 -102 -16 -94 -19 -104 -37 -104 -18 0 -18
-12 11 159 34 193 33 191 50 191 9 0 15 -9 15 -22z m1160 11 c0 -12 -46 -278
-55 -316 -3 -13 -13 -23 -21 -23 -11 0 -15 6 -11 20 6 25 0 25 -38 0 -66 -43
-158 -14 -170 54 -12 63 34 164 68 150 13 -5 11 -11 -9 -41 -41 -61 -30 -132
24 -151 93 -32 187 106 121 177 -19 20 -29 23 -70 19 -59 -6 -85 6 -46 21 47
18 92 13 120 -13 31 -28 32 -27 42 34 3 25 9 53 11 63 6 18 34 24 34 6z m-626
-49 c-6 -28 -5 -30 25 -30 21 0 31 -5 31 -16 0 -9 -8 -14 -17 -13 -48 4 -50 1
-67 -91 -10 -50 -14 -95 -11 -100 3 -6 17 -10 31 -10 15 0 24 -6 24 -15 0 -17
-56 -19 -77 -2 -17 12 -16 65 1 146 13 59 13 64 -4 68 -21 6 -16 33 6 33 8 0
17 14 21 30 4 20 11 30 24 30 15 0 17 -5 13 -30z m2681 -2 c0 -30 2 -33 28
-30 19 3 27 -1 27 -12 0 -11 -10 -16 -34 -16 -33 0 -33 -1 -46 -60 -7 -33 -13
-77 -14 -97 -1 -34 2 -38 27 -41 15 -2 27 -9 27 -18 0 -19 -64 -19 -80 1 -15
18 -15 76 0 125 15 51 13 90 -5 90 -8 0 -15 5 -15 10 0 9 14 14 32 11 4 0 10
15 14 34 9 47 39 49 39 3z m-3595 -41 c0 -8 -9 -62 -20 -122 -18 -103 -31
-137 -47 -122 -5 6 17 161 34 235 6 23 33 31 33 9z m724 -8 c-3 -26 -35 -204
-40 -221 -5 -18 -34 -26 -34 -10 0 14 40 226 45 240 6 17 30 9 29 -9z m966 4
c0 -10 -9 -67 -20 -127 -11 -60 -20 -111 -20 -113 0 -2 -7 -3 -15 -3 -17 0
-19 28 -6 80 5 19 14 68 21 108 8 49 16 72 26 72 8 0 14 -8 14 -17z m713 8
c42 -16 57 -39 57 -87 l0 -44 -110 0 c-109 0 -110 0 -110 -24 0 -13 9 -34 19
-47 26 -32 90 -33 124 -1 13 12 32 22 42 22 32 0 -33 -59 -74 -67 -91 -18
-141 19 -141 103 0 36 31 107 51 120 8 5 10 2 5 -7 -5 -9 -2 -8 6 2 31 37 82
48 131 30z m229 -18 c2 -16 -2 -41 -8 -58 -7 -16 -17 -63 -24 -102 -8 -51 -16
-73 -26 -73 -20 0 -18 31 17 208 11 57 35 71 41 25z m88 12 c0 -12 -68 -40
-76 -32 -5 5 11 24 31 35 28 16 45 15 45 -3z m279 0 c33 -17 41 -33 41 -86 l0
-39 -105 0 c-79 0 -107 -3 -111 -13 -8 -21 14 -67 33 -73 10 -3 26 -10 36 -15
11 -6 17 -6 17 1 0 5 8 10 18 10 11 0 27 9 37 20 10 11 26 20 37 20 15 0 16
-3 6 -19 -19 -32 -63 -51 -116 -51 -44 0 -54 4 -76 31 -18 22 -26 42 -26 70 0
50 35 123 56 115 7 -3 13 0 11 6 -6 33 93 49 142 23z m213 -7 c3 -20 4 -21 20
-5 20 21 68 32 102 23 57 -14 66 -48 44 -178 -7 -41 -17 -72 -25 -75 -8 -3
-16 -4 -18 -2 -2 2 3 44 12 92 13 80 13 90 -1 113 -13 19 -25 24 -57 24 -57 0
-82 -29 -98 -110 -6 -36 -14 -77 -17 -92 -7 -34 -34 -38 -33 -5 0 43 34 208
41 202 4 -4 4 2 1 14 -4 15 -1 21 10 21 9 0 17 -10 19 -22z m5044 -786 c0 -10
-8 -18 -18 -18 -16 0 -16 2 -1 18 9 10 17 18 17 18 1 0 2 -8 2 -18z m1659 -96
c37 -7 92 -17 102 -17 5 0 19 -10 33 -22 16 -14 20 -16 10 -4 -12 17 -11 18
16 11 16 -4 38 -11 49 -16 17 -7 15 -8 -7 -5 -16 3 -25 0 -21 -6 4 -6 -8 -7
-33 -3 -21 4 -40 12 -42 17 -2 5 -8 9 -13 9 -6 0 -7 -5 -3 -12 4 -7 9 -27 11
-45 3 -32 3 -33 -37 -33 -36 0 -40 -2 -40 -26 0 -33 -21 -54 -54 -54 -19 0
-26 -5 -26 -20 0 -17 -7 -20 -40 -20 -33 0 -40 -3 -40 -20 0 -15 -7 -20 -28
-20 -17 0 -36 -9 -49 -24 -11 -13 -35 -32 -52 -42 -17 -10 -31 -26 -31 -36 0
-13 -8 -18 -27 -18 -21 0 -34 -9 -51 -35 -17 -27 -29 -35 -55 -36 -17 -1 -24
-3 -14 -6 24 -6 11 -23 -19 -23 -26 0 -54 -20 -54 -39 0 -6 -9 -15 -20 -21
-11 -6 -20 -17 -20 -25 0 -10 -10 -15 -30 -15 -20 0 -30 -5 -30 -15 0 -10 -10
-15 -32 -15 -18 0 -54 -2 -80 -6 -48 -6 -48 -6 -48 -44 0 -34 -3 -38 -30 -43
-18 -4 -30 -13 -30 -22 0 -8 -4 -15 -10 -15 -5 0 -10 9 -10 20 0 16 -7 20 -35
20 l-35 0 -3 163 c-2 148 -3 143 -5 -60 l-2 -223 -40 0 c-33 0 -40 3 -40 20 0
11 -4 20 -10 20 -5 0 -10 -18 -10 -40 0 -33 -3 -40 -20 -40 -17 0 -20 7 -20
39 0 22 4 41 10 43 5 2 10 86 10 207 1 159 -1 206 -12 213 -10 7 -9 11 6 23
11 8 16 21 12 30 -3 9 -2 14 2 12 4 -3 22 15 41 38 30 37 36 41 49 29 12 -13
12 -18 -3 -40 -9 -14 -13 -29 -9 -32 4 -4 9 -2 11 5 2 7 11 9 19 6 10 -4 14 4
14 30 0 37 17 51 48 40 9 -3 13 -2 9 2 -4 5 -20 9 -34 10 -15 0 -28 6 -31 14
-3 9 0 12 10 9 8 -4 21 -2 29 4 11 8 10 9 -4 4 -25 -8 -12 9 26 34 31 21 31
21 8 1 -28 -25 -20 -28 14 -5 13 9 30 13 37 9 7 -4 5 0 -4 8 -10 8 -18 18 -18
22 0 5 3 5 7 2 3 -4 11 -3 17 2 25 20 105 59 109 54 3 -3 3 -12 0 -21 -4 -14
-3 -15 5 -2 6 8 9 17 6 21 -2 4 3 9 11 13 10 3 15 -1 16 -12 0 -13 2 -13 9 4
9 23 46 41 100 47 19 3 46 9 60 14 14 5 44 9 67 9 24 -1 43 2 43 7 0 8 340 3
385 -7z m266 -71 c0 -5 -5 -11 -13 -13 -10 -3 -10 -1 1 6 11 8 10 11 -5 15
-16 5 -16 6 -1 4 10 -1 18 -6 18 -12z m-44 -1 c-3 -3 -12 -4 -19 -1 -8 3 -5 6
6 6 11 1 17 -2 13 -5z m-2000 -46 c-3 -8 -6 -5 -6 6 -1 11 2 17 5 13 3 -3 4
-12 1 -19z m2153 18 c0 -2 -7 -7 -16 -10 -8 -3 -12 -2 -9 4 6 10 25 14 25 6z
m-2120 -61 c0 -5 -5 -3 -10 5 -5 8 -10 20 -10 25 0 6 5 3 10 -5 5 -8 10 -19
10 -25z m814 -86 c-6 -11 -24 -2 -24 11 0 5 7 7 15 4 8 -4 12 -10 9 -15z
m-887 -141 c-3 -8 -6 -5 -6 6 -1 11 2 17 5 13 3 -3 4 -12 1 -19z m130 -10 c-3
-7 -5 -2 -5 12 0 14 2 19 5 13 2 -7 2 -19 0 -25z m586 -13 c-3 -9 -8 -14 -10
-11 -3 3 -2 9 2 15 9 16 15 13 8 -4z m-17 -60 c0 -19 -4 -35 -8 -35 -10 0 -11
54 -1 63 9 10 9 10 9 -28z m24 10 c0 -8 -4 -15 -10 -15 -5 0 -7 7 -4 15 4 8 8
15 10 15 2 0 4 -7 4 -15z m-583 -67 c-3 -8 -6 -5 -6 6 -1 11 2 17 5 13 3 -3 4
-12 1 -19z m-20 -30 c-3 -8 -6 -5 -6 6 -1 11 2 17 5 13 3 -3 4 -12 1 -19z
m-99 -23 c-3 -3 -9 2 -12 12 -6 14 -5 15 5 6 7 -7 10 -15 7 -18z m619 -7 c1
-30 1 -31 -6 -8 -7 21 -5 40 2 40 2 0 3 -15 4 -32z m-27 -45 c-11 -17 -11 -17
-6 0 3 10 6 24 7 30 0 9 2 9 5 0 3 -7 0 -20 -6 -30z m29 -53 c0 -9 -4 -8 -9 5
-5 11 -9 27 -9 35 0 9 4 8 9 -5 5 -11 9 -27 9 -35z m-19 -11 c0 -3 -6 -11 -13
-17 -10 -9 -13 -3 -14 26 -1 34 0 35 13 17 8 -10 14 -22 14 -26z m-593 9 c-3
-8 -6 -5 -6 6 -1 11 2 17 5 13 3 -3 4 -12 1 -19z m1013 -63 c0 -8 -9 -15 -20
-15 -11 0 -20 7 -20 15 0 8 9 15 20 15 11 0 20 -7 20 -15z m-973 -97 c-3 -8
-6 -5 -6 6 -1 11 2 17 5 13 3 -3 4 -12 1 -19z m490 -20 c-3 -7 -5 -2 -5 12 0
14 2 19 5 13 2 -7 2 -19 0 -25z m0 -50 c-3 -7 -5 -2 -5 12 0 14 2 19 5 13 2
-7 2 -19 0 -25z m1490 -204 c-3 -3 -12 -4 -19 -1 -8 3 -5 6 6 6 11 1 17 -2 13
-5z"/>
<path d="M9620 11083 c-51 -21 -90 -136 -90 -267 0 -107 17 -176 60 -234 39
-54 76 -72 149 -72 56 0 61 2 89 36 73 89 87 300 27 431 -34 75 -90 113 -164
112 -31 0 -63 -3 -71 -6z"/>
<path d="M8970 11081 l-55 -6 -3 -123 c-3 -154 0 -162 76 -162 69 0 99 14 129
59 52 77 6 244 -66 239 -14 -1 -51 -4 -81 -7z"/>
<path d="M9112 9708 c-10 -13 -139 -336 -227 -570 -28 -72 -52 -125 -58 -121
-6 3 -7 1 -3 -5 8 -13 8 -12 -496 -1312 -78 -202 -85 -225 -77 -247 11 -30 62
-32 82 -2 8 11 32 67 53 124 21 57 42 101 47 98 6 -3 7 -1 3 5 -7 11 42 152
53 152 4 0 8 8 8 18 1 9 27 82 58 162 31 80 66 171 77 203 12 34 24 54 30 50
7 -4 8 -1 3 6 -4 7 4 40 18 74 31 77 296 762 432 1117 18 47 42 109 54 138 11
29 21 64 21 77 0 37 -55 60 -78 33z"/>
<path d="M8106 9283 c-22 -16 -51 -38 -64 -50 -14 -13 -29 -20 -34 -17 -4 3
-7 1 -6 -4 3 -9 -54 -62 -67 -62 -3 0 -13 -7 -22 -15 -8 -8 -19 -12 -25 -9 -6
4 -8 2 -4 -4 8 -13 -33 -44 -47 -35 -6 3 -7 1 -4 -4 8 -13 -150 -140 -167
-135 -6 2 -8 0 -4 -4 4 -4 -11 -21 -35 -38 -23 -17 -48 -36 -55 -43 -27 -26
-105 -78 -113 -76 -5 2 -8 -1 -6 -6 2 -8 -146 -131 -158 -131 -4 0 -3 5 1 12
4 7 3 8 -5 4 -6 -4 -9 -11 -6 -15 2 -5 -9 -20 -26 -35 -19 -17 -28 -33 -25
-43 3 -8 6 -18 6 -22 0 -7 86 -77 240 -196 25 -19 45 -40 45 -47 0 -7 8 -12
17 -10 9 1 24 -8 32 -20 9 -13 17 -21 19 -18 1 3 39 -25 84 -61 45 -37 79 -70
75 -74 -4 -5 -1 -5 6 -1 16 10 44 -12 35 -28 -3 -6 -3 -8 2 -4 11 11 67 -31
59 -44 -4 -7 -2 -8 5 -4 7 4 32 -10 62 -34 43 -37 48 -45 37 -59 -12 -14 -11
-15 5 -2 18 14 32 9 32 -12 0 -7 8 -11 17 -9 9 1 26 -10 37 -24 12 -15 21 -23
21 -19 0 4 14 -5 31 -19 49 -41 99 -31 99 21 0 16 -20 39 -67 79 -38 30 -67
60 -65 65 1 6 -2 8 -8 4 -12 -7 -135 92 -135 109 0 6 -7 11 -15 11 -22 0 -91
56 -83 68 3 6 1 7 -6 3 -13 -8 -78 42 -73 56 1 5 -2 7 -7 4 -12 -8 -132 89
-123 99 4 5 2 6 -3 2 -6 -3 -26 8 -45 24 -29 24 -32 30 -20 39 9 6 10 10 3 10
-6 0 -15 -4 -18 -10 -3 -5 -37 15 -76 46 -38 31 -66 60 -63 65 3 5 -2 6 -10 3
-9 -3 -16 -1 -16 4 0 14 50 53 60 47 5 -3 12 0 16 6 5 8 2 10 -7 5 -8 -4 -3 1
11 12 13 11 29 18 34 15 5 -3 6 -2 3 4 -10 15 138 124 160 117 15 -5 15 -4 3
5 -8 5 -12 11 -10 13 3 2 38 30 78 61 41 33 77 55 84 51 6 -4 8 -3 4 4 -4 6
28 37 76 73 46 34 95 73 110 87 16 14 31 21 39 17 7 -5 10 -4 6 2 -9 14 29 47
44 37 7 -4 10 -3 6 3 -4 6 20 32 53 57 64 50 75 79 44 110 -21 22 -33 20 -78
-11z"/>
<path d="M9280 9303 c-48 -18 -39 -64 20 -109 27 -20 47 -41 44 -46 -3 -5 -1
-7 4 -6 17 5 113 -72 106 -84 -4 -7 -3 -8 4 -4 15 9 94 -53 85 -67 -3 -6 -1
-7 6 -3 6 4 59 -31 129 -87 64 -51 162 -129 217 -171 55 -43 100 -81 100 -87
0 -5 5 -9 10 -10 22 -2 45 -21 39 -31 -4 -7 -3 -8 4 -4 7 4 12 2 12 -4 0 -6 4
-9 9 -5 5 3 12 1 15 -4 3 -5 -16 -25 -42 -44 -26 -20 -57 -46 -68 -58 -12 -12
-27 -18 -33 -14 -6 3 -10 2 -9 -4 4 -14 -222 -192 -235 -184 -5 3 -7 1 -4 -4
4 -6 -27 -36 -69 -67 -41 -32 -136 -106 -211 -167 -75 -60 -140 -106 -147
-102 -6 3 -8 3 -4 -2 4 -4 3 -14 -3 -21 -18 -22 -2 -63 26 -70 30 -7 42 0 175
107 59 47 105 77 111 73 7 -4 9 -3 6 3 -4 6 2 18 13 28 11 10 20 14 20 9 0 -5
7 2 16 14 9 14 22 21 31 18 8 -3 12 -2 9 2 -5 8 48 53 264 223 174 137 177
139 197 133 15 -5 15 -4 3 5 -13 9 -11 13 10 28 13 9 38 29 54 43 41 37 31 64
-43 120 -32 25 -57 49 -54 54 4 5 2 6 -4 3 -5 -3 -26 9 -46 27 -21 19 -37 31
-37 28 0 -3 -11 5 -25 18 -13 12 -22 27 -18 33 3 6 1 7 -6 3 -15 -10 -43 13
-34 27 3 6 1 7 -5 3 -12 -7 -52 22 -267 194 -66 53 -146 115 -177 139 -32 24
-55 48 -51 54 3 6 1 7 -5 3 -6 -4 -28 9 -49 27 -41 37 -69 49 -93 40z"/>
<path d="M7710 6691 c0 -6 4 -13 10 -16 6 -3 7 1 4 9 -7 18 -14 21 -14 7z"/>
<path d="M9164 6883 c2 -2 -9 -17 -25 -33 -52 -51 -41 -61 59 -58 l87 3 -2 29
c-3 40 -14 48 -73 56 -27 3 -48 5 -46 3z"/>
<path d="M9712 6845 c-36 -51 -31 -55 69 -55 l92 0 -7 33 c-8 43 -32 58 -87
56 -39 -2 -49 -7 -67 -34z"/>
<path d="M16810 5945 c7 -8 20 -15 28 -15 13 0 12 3 -4 15 -25 19 -40 19 -24
0z"/>
<path d="M16157 5939 c7 -7 15 -10 18 -7 3 3 -2 9 -12 12 -14 6 -15 5 -6 -5z"/>
<path d="M16236 5931 c-4 -5 3 -7 14 -4 23 6 26 13 6 13 -8 0 -17 -4 -20 -9z"/>
<path d="M16026 5894 c-17 -12 -17 -14 -4 -14 9 0 20 5 23 11 11 17 2 18 -19
3z"/>
<path d="M15790 5730 c-11 -7 -12 -12 -4 -20 8 -8 13 -6 17 9 3 12 4 21 4 21
-1 0 -9 -5 -17 -10z"/>
<path d="M15759 5700 c-1 -8 -1 -20 0 -27 1 -6 -3 -14 -9 -18 -13 -8 -13 -35
0 -35 5 0 17 14 26 31 14 29 14 33 0 47 -14 14 -16 14 -17 2z"/>
<path d="M15841 5667 c-1 -11 -6 -15 -12 -11 -7 4 -6 -3 2 -17 11 -20 14 -21
17 -6 2 9 1 25 -1 35 -4 16 -5 16 -6 -1z"/>
<path d="M15780 5610 c0 -5 9 -10 20 -10 11 0 20 5 20 10 0 6 -9 10 -20 10
-11 0 -20 -4 -20 -10z"/>
<path d="M16330 5550 c-12 -8 -11 -10 8 -10 12 0 22 5 22 10 0 13 -11 13 -30
0z"/>
<path d="M16249 5503 c-13 -16 -12 -17 4 -4 9 7 17 15 17 17 0 8 -8 3 -21 -13z"/>
<path d="M16165 5430 c-3 -5 -2 -10 4 -10 5 0 13 5 16 10 3 6 2 10 -4 10 -5 0
-13 -4 -16 -10z"/>
<path d="M16120 5390 c0 -5 5 -10 10 -10 6 0 10 5 10 10 0 6 -4 10 -10 10 -5
0 -10 -4 -10 -10z"/>
<path d="M17060 4830 c0 -5 5 -10 11 -10 5 0 7 5 4 10 -3 6 -8 10 -11 10 -2 0
-4 -4 -4 -10z"/>
<path d="M17221 4375 l-54 -55 57 0 56 0 0 55 c0 30 -1 55 -3 55 -1 0 -27 -25
-56 -55z"/>
</g>
</svg>
